<svg id="Group_76" data-name="Group 76" xmlns="http://www.w3.org/2000/svg" xmlns:xlink="http://www.w3.org/1999/xlink" width="80.538" height="66" viewBox="0 0 80.538 66">
  <defs>
    <linearGradient id="linear-gradient" x1="0.5" x2="0.787" y2="1" gradientUnits="objectBoundingBox">
      <stop offset="0" stop-color="#ff705a"/>
      <stop offset="1" stop-color="#f2a355"/>
    </linearGradient>
  </defs>
  <path id="Path_212" data-name="Path 212" d="M344.7,1098.256H353.2v-3.442c2.255-.4,4.4-.78,6.553-1.159,1.944-.342,3.886-.694,5.834-1.011a2.034,2.034,0,0,1,1.01.09,19.216,19.216,0,0,0,19.392-2.6c.105-.077.219-.143.4-.259v19.279H310.265v-20.663c1.661.3,3.3.592,4.938.891q14.405,2.626,28.813,5.238c.564.1.723.306.7.849C344.671,1096.371,344.7,1097.276,344.7,1098.256Z" transform="translate(-310.189 -1055.55)" fill="url(#linear-gradient)"/>
  <path id="Path_213" data-name="Path 213" d="M362.315,986.762c-3.2.56-6.236,1.092-9.275,1.621a1.349,1.349,0,0,1-.319-.06c0-.63.029-1.278-.02-1.92-.013-.167-.264-.451-.408-.452-2.646-.028-5.293-.02-8.028-.02v2.32c-1.716-.3-3.335-.586-4.951-.881q-10.632-1.937-21.262-3.88c-2.561-.467-5.12-.946-7.685-1.39-.48-.083-.652-.25-.646-.756.028-2.232-.005-4.466.017-6.7a6.833,6.833,0,0,1,6.872-6.884q18.63-.035,37.26-.008c.2,0,.407.025.632.04C353.54,975.56,356.116,981.841,362.315,986.762Z" transform="translate(-309.723 -951.657)" fill="url(#linear-gradient)"/>
  <path id="Path_214" data-name="Path 214" d="M309.785,1254.548h76.2c0,2.078.311,4.16-.727,6.086a6.649,6.649,0,0,1-6.149,3.779q-31.217.035-62.435,0a6.848,6.848,0,0,1-6.884-6.8C309.768,1256.618,309.785,1255.621,309.785,1254.548Z" transform="translate(-309.77 -1198.429)" fill="url(#linear-gradient)"/>
  <path id="Path_215" data-name="Path 215" d="M676.775,907.949a15.748,15.748,0,1,1,15.773-15.609A15.749,15.749,0,0,1,676.775,907.949Zm5.116-19.681c.538-2.85-.613-4.391-4.055-5.476-.025-.435-.051-.886-.081-1.389h-2.1c.454,1.381-.4,1.541-1.344,1.767a3.868,3.868,0,0,0-3.013,2.8,5.615,5.615,0,0,0,2.124,6.118c.89.632,1.829,1.194,2.727,1.814a3.717,3.717,0,0,1,1.178,4.04,1.117,1.117,0,0,1-.852.518c-.218,0-.555-.372-.635-.64a5.428,5.428,0,0,1-.123-1.381c-.017-.57,0-1.14,0-1.714H671.2a7.568,7.568,0,0,0,.679,4.247,5.208,5.208,0,0,0,3.867,2.3v1.659h2.073v-1.619c.405-.1.743-.184,1.077-.277a4.418,4.418,0,0,0,3.438-3.787,10.828,10.828,0,0,0,.016-2.909,4.279,4.279,0,0,0-2.012-3.2c-1.212-.778-2.413-1.574-3.638-2.332a2.15,2.15,0,0,1-.937-2.3c.052-.494.247-.933.842-.924.611.01.741.463.767.966.03.57.055,1.141.082,1.719Z" transform="translate(-612.009 -873.105)" fill="url(#linear-gradient)"/>
  <path id="Path_216" data-name="Path 216" d="M519.757,865.6c0-1.526-.009-3.052,0-4.578a4.093,4.093,0,0,0-.952-2.84,3.783,3.783,0,0,0-2.926-1.4c-2.209-.012-4.418-.025-6.626,0a3.943,3.943,0,0,0-3.933,3.969c-.017,1.6,0,3.2,0,4.924-1.309,0-2.576.011-3.841-.019-.109,0-.3-.271-.305-.416-.011-2.906-.093-5.816.036-8.716a4.265,4.265,0,0,1,4.428-4.045q6.9-.021,13.81,0a4.407,4.407,0,0,1,4.47,4.394,5.035,5.035,0,0,1-1.052,3.435,40.567,40.567,0,0,0-2.7,4.849c-.084.155-.15.319-.224.479Z" transform="translate(-474.421 -852.47)" fill="url(#linear-gradient)"/>
</svg>
